<?xml version="1.0" standalone="no"?>
<!DOCTYPE svg PUBLIC "-//W3C//DTD SVG 20010904//EN"
 "http://www.w3.org/TR/2001/REC-SVG-20010904/DTD/svg10.dtd">
<svg version="1.0" xmlns="http://www.w3.org/2000/svg"
 width="2645.000000pt" height="925.000000pt" viewBox="0 0 2645.000000 925.000000"
 preserveAspectRatio="xMidYMid meet">

<g transform="translate(0.000000,925.000000) scale(0.100000,-0.100000)"
fill="#000000" stroke="none">
<path d="M0 5270 l0 -2600 345 0 345 0 0 2600 0 2600 -345 0 -345 0 0 -2600z"/>
<path d="M1140 6890 l0 -970 460 0 460 0 0 320 0 320 440 0 440 0 0 -1295 0
-1295 -440 0 -440 0 0 320 0 320 -460 0 -460 0 0 -970 0 -970 920 0 920 0 0
645 0 645 440 0 440 0 0 1300 0 1300 -440 0 -440 0 0 650 0 650 -920 0 -920 0
0 -970z"/>
<path d="M16795 6690 c-88 -21 -125 -40 -188 -98 -144 -135 -152 -358 -17
-505 146 -159 382 -166 533 -15 130 130 144 335 31 482 -86 112 -228 166 -359
136z"/>
<path d="M6825 6680 c-443 -40 -786 -194 -1046 -468 -186 -195 -300 -423 -360
-718 -26 -129 -37 -454 -20 -604 69 -608 421 -1047 978 -1223 209 -66 331 -82
633 -82 227 1 283 4 390 23 243 42 442 111 596 207 380 237 591 592 654 1098
18 143 8 475 -18 595 -62 282 -176 500 -366 700 -239 250 -539 400 -912 457
-120 18 -406 27 -529 15z m410 -394 c285 -75 488 -324 575 -700 36 -158 45
-258 44 -481 0 -231 -8 -312 -50 -479 -67 -270 -218 -484 -414 -585 -124 -65
-209 -84 -375 -84 -239 0 -375 53 -526 203 -211 209 -309 521 -309 983 0 497
147 861 422 1044 74 48 195 96 288 112 76 14 273 6 345 -13z"/>
<path d="M21952 6428 l3 -183 120 -5 c89 -4 129 -10 153 -23 59 -32 62 -52 62
-389 l0 -303 -48 50 c-60 64 -172 149 -237 179 -98 47 -170 60 -320 61 -104 0
-158 -5 -210 -19 -334 -88 -587 -387 -677 -801 -25 -117 -35 -384 -19 -522 31
-265 127 -484 283 -644 101 -103 206 -166 343 -204 80 -22 330 -31 420 -16
194 34 348 112 459 232 l56 60 0 -54 c0 -30 3 -82 6 -116 l7 -61 473 0 474 0
0 178 0 178 -130 0 -129 -1 -31 30 c-21 21 -33 46 -40 84 -6 35 -10 482 -10
1262 l0 1209 -505 0 -505 0 2 -182z m114 -1070 c149 -77 237 -253 265 -531 39
-388 -83 -727 -301 -835 -48 -24 -67 -27 -150 -27 -88 0 -101 3 -162 33 -148
73 -222 229 -249 523 -22 235 13 470 93 639 42 87 134 179 208 208 80 32 224
27 296 -10z"/>
<path d="M10457 5810 c-145 -25 -282 -94 -441 -221 -47 -38 -88 -69 -92 -69
-3 0 -3 56 1 125 l7 125 -481 0 -481 0 0 -180 c0 -137 3 -180 13 -181 242 -14
247 -15 274 -35 60 -44 58 -26 58 -664 0 -639 2 -620 -58 -664 -26 -19 -39
-21 -158 -18 l-129 4 0 -181 0 -181 630 0 630 0 0 178 0 179 -73 -5 c-89 -5
-138 12 -164 60 -17 30 -18 70 -21 488 -2 388 0 467 13 535 44 214 162 316
369 317 182 0 264 -70 296 -252 7 -44 10 -228 8 -560 -3 -444 -5 -498 -20
-526 -23 -43 -68 -58 -165 -59 l-83 0 0 -177 0 -178 595 0 595 0 0 178 0 178
-82 -3 c-111 -5 -146 12 -170 82 -16 45 -18 93 -15 515 4 498 5 507 58 617 29
61 98 129 153 154 95 42 263 42 345 -1 52 -26 88 -74 114 -152 20 -60 21 -87
25 -544 4 -500 -1 -576 -37 -624 -21 -29 -108 -52 -178 -48 l-43 3 0 -177 0
-178 630 0 630 0 0 179 0 179 -117 -5 c-134 -6 -178 5 -210 53 -17 26 -18 69
-23 654 l-5 625 -27 74 c-66 182 -214 312 -418 368 -100 28 -354 24 -475 -6
-147 -37 -277 -116 -411 -248 l-63 -61 -24 37 c-134 202 -344 303 -625 300
-59 -1 -129 -5 -155 -9z"/>
<path d="M14756 5805 c-165 -32 -268 -90 -422 -237 -61 -60 -114 -108 -117
-108 -3 0 -3 70 0 155 l6 155 -476 0 -477 0 0 -179 0 -178 38 -7 c20 -3 69 -6
107 -6 98 -1 147 -24 169 -81 15 -40 16 -104 14 -624 -3 -538 -4 -582 -21
-613 -28 -51 -61 -60 -193 -54 l-114 5 0 -182 0 -181 625 0 625 0 0 178 0 177
-95 0 c-92 0 -95 1 -125 31 -48 47 -52 107 -48 572 4 379 6 413 26 486 41 149
99 220 219 267 47 18 79 23 164 23 98 1 109 -1 164 -29 65 -33 99 -75 131
-160 17 -46 19 -92 22 -560 3 -556 2 -569 -51 -609 -25 -18 -40 -21 -123 -18
l-94 3 0 -180 0 -181 635 0 635 0 0 179 0 178 -117 -4 c-140 -5 -176 7 -208
72 -19 38 -20 66 -25 650 -6 595 -6 612 -28 676 -61 182 -202 309 -412 369
-100 29 -320 36 -434 15z"/>
<path d="M19303 5805 c-176 -32 -285 -92 -453 -252 l-102 -97 7 157 7 157
-481 0 -481 0 0 -179 0 -178 38 -7 c20 -3 71 -6 112 -6 85 0 131 -18 164 -63
21 -28 21 -37 21 -620 0 -640 0 -638 -54 -674 -22 -14 -46 -17 -153 -14 l-128
2 0 -180 0 -181 630 0 630 0 0 178 0 178 -82 -3 c-111 -5 -146 12 -170 82 -15
44 -17 99 -17 450 0 220 4 434 9 475 34 262 153 373 400 374 85 0 113 -4 150
-20 86 -40 130 -104 156 -227 12 -61 14 -156 12 -558 -3 -445 -4 -487 -21
-517 -27 -49 -65 -61 -169 -55 l-88 6 0 -182 0 -181 640 0 640 0 0 179 0 178
-118 -5 c-141 -6 -179 7 -209 66 -17 34 -18 83 -24 647 -3 376 -10 623 -16
645 -52 173 -143 284 -297 360 -146 73 -367 99 -553 65z"/>
<path d="M16220 5590 c0 -99 1 -180 3 -181 1 0 59 -4 129 -8 142 -9 170 -20
194 -76 21 -51 21 -1179 0 -1230 -26 -61 -53 -70 -198 -67 l-128 4 0 -181 0
-181 670 0 670 0 0 178 0 179 -122 -4 c-112 -4 -126 -2 -156 17 -64 40 -62 6
-62 910 l0 820 -500 0 -500 0 0 -180z"/>
</g>
</svg>
